<svg id="Слой_1" data-name="Слой 1" xmlns="http://www.w3.org/2000/svg" viewBox="0 0 849.94 373.49"><title>Cartridge</title><path d="M-276.61,35.11h-14.7V17.93c4.65,0,9.26-.19,13.84.06,3.21,0.18,4.16-1,4.65-4.13,3.41-21.37,7.09-42.7,10.6-64.06,0.4-2.42.87-3.88,3.87-3.87,31.33,0.12,62.66.1,94,.13a3.64,3.64,0,0,1,1,.27,4.2,4.2,0,0,1,.53.83c1.19,3.42,1.4,8.31,3.8,9.9,2.71,1.79,7.38.73,11.19,0.74q281.47,0,562.94.16c5.38,0,8.08-1.43,8.6-6.65,0.42-4.27,2.55-5.46,6.88-5.43q44,0.33,88,0c4,0,5.32,1.13,5.94,5.07,3.31,21.22,7,42.38,10.49,63.57,0.16,1,.38,1.91.66,3.31h17.75V35H538.55c0.94,6.21,1.72,11.89,2.66,17.54,4.85,29.07,9.82,58.12,14.51,87.21a28.46,28.46,0,0,1-.57,11.22c-5.37,21.13-11.21,42.14-16.49,63.28-1.15,4.61-3.27,5.48-7.54,5.47-59.49-.13-119-0.06-178.48-0.17a14.35,14.35,0,0,0-9.91,3.49q-56.62,46.81-113.5,93.3a13.71,13.71,0,0,1-8,2.91q-90.49.23-181,0A13.77,13.77,0,0,1,32.35,316C-5.57,285-43.33,253.85-81.28,222.9a15.21,15.21,0,0,0-8.89-3.15q-89.24-.27-178.48,0c-4.66,0-7-.92-8.2-6-5.32-21.48-11.82-42.7-16.49-64.31-1.56-7.22.6-15.42,1.83-23,4.8-29.74,9.91-59.44,14.89-89.15A17.39,17.39,0,0,0-276.61,35.11ZM130.72,60.44H458.06c10.66,0,21.33.12,32-.14,1.64,0,4.34-1.56,4.68-2.88,5.39-20.52,6.16-41.13-.3-61.56C491.77-12.59,490.73-13,482-13q-351.91,0-703.83-.13c-5,0-7.81,1.63-9.38,6.05a80,80,0,0,0-2.9,8.48c-4,17.34-3.4,34.66.06,52,1.05,5.28,3.2,7.11,8.86,7.11Q-47.24,60.3,130.72,60.44ZM-35.38,168.3a39.8,39.8,0,0,0,2.14,3.47Q7.26,222.86,47.91,273.83a9.56,9.56,0,0,0,6.61,3c51,0.17,102,.1,152.93.2a8.06,8.06,0,0,0,7.09-3.48q40.1-50.77,80.36-101.42c0.82-1,1.43-2.25,2.43-3.86H-35.38Z" transform="translate(293.89 54.12)"/></svg>