<svg id="Слой_1" data-name="Слой 1" xmlns="http://www.w3.org/2000/svg" viewBox="0 0 887.85 1132.37"><title>Full</title><path d="M499,305.58c-7.59-16.92-14.93-33.33-22.3-49.72q-47.74-106.21-95.54-212.4a145.4,145.4,0,0,1-13.41-59c0-1,0-2-.15-3a4.76,4.76,0,0,0-.83-1.24C357-15.41,347.16-11,337.34-6.63q-29.41,13.2-58.79,26.45c-3.49,1.58-6.94,3.26-10.27,5.15-24.44,13.95-33.66,36.63-25.85,63.74a88.58,88.58,0,0,0,4.38,11.68Q312.52,246.75,378.3,393.07c7.37,16.41,3.39,32.84-10.21,42.2a52.92,52.92,0,0,1-8.36,4.46Q219.8,502.66,79.85,565.52C60,574.46,42,567.8,33.16,548.06Q-82.43,291-198,33.88q-33.5-74.53-67-149.06c-9.34-20.8-2.8-38.32,18-47.67q202.37-91,404.78-182,95.5-42.93,191-85.86c21.7-9.75,38.83-3.19,48.61,18.55L524-130.4c9.5,21.14,3.07,38.26-18.1,48-12.11,5.56-24.2,11.17-36.45,16.43C434-50.79,423.69-22.33,439.61,13.7c43,97.37,87.08,194.29,130.71,291.39,9.63,21.43,3.1,38.56-18.38,48.24C517,369.07,482.1,384.89,447.07,400.39c-19.93,8.82-41.67-2.76-45.68-23.9-2.88-15.16,5.15-29.31,20.87-36.42C443,330.66,463.89,321.36,484.7,312ZM-131.28,24c1.09-1.39,2-2.72,3.11-3.94,9.62-11,18.76-22.57,29-33C-77.91-34.66-52.86-49.4-21.74-51.31c18.95-1.16,38-1.47,56.89-2.81,18.25-1.29,36.57-2.56,54.61-5.41,21.07-3.32,39.3-14.22,57.27-25.11,24.51-14.85,46.75-32.53,65.4-54.45,1.24-1.46,2.22-4.26,1.7-5.92a140.21,140.21,0,0,0-6.31-15.7q-24.43-53.89-49-107.72c-0.61-1.34-1.34-2.61-2.25-4.37l-350,157.48Zm450.8-94.14L452.68-130,349.53-359.43,216.37-299.65ZM258.05,285.08c-1.17-2.79-1.78-4.33-2.45-5.83-8.86-19.75-17.86-39.45-26.5-59.3a15,15,0,0,0-9.25-8.73Q61.61,150.88-96.54,90.31c-1.43-.55-2.91-1-5.26-1.74,1.11,2.59,1.74,4.12,2.42,5.62,8.94,19.9,18,39.75,26.75,59.73a13.84,13.84,0,0,0,8.51,8.14Q81.53,217.55,227.09,273.31C237,277.1,246.93,280.85,258.05,285.08ZM-50.7,202c1.11,2.71,1.68,4.22,2.34,5.68C-39.21,228-30,248.35-21,268.77a11.14,11.14,0,0,0,6.91,6.44q154.26,58.88,308.41,118.06c4.61,1.77,8.14,1.73,11.73-1.71-9-20-18-39.91-26.83-59.87a10.64,10.64,0,0,0-6.61-6.09q-127.2-48.54-254.34-97.25C-4.25,219.72-26.8,211.11-50.7,202ZM-107.14,51.3l314.2,120.21c-3.14-7.09-5.84-12.9-8.32-18.82C192.37,137.5,186,122.33,179.92,107c-1.26-3.19-2.52-5.19-5.9-6.47C137.41,86.7,100.88,72.65,64.32,58.67Q0.15,34.13-64,9.57c-2.51-1-4.41-1.32-6.73.76A252,252,0,0,0-107.14,51.3Zm364.7,362.75L0.88,315.82a18.45,18.45,0,0,0,.61,2.67c9.88,22,19.72,44.1,29.78,66.05,0.77,1.68,2.91,3.15,4.74,3.86q73.45,28.26,147,56.19a10.16,10.16,0,0,0,6.95-.25c14.52-6.29,28.92-12.86,43.35-19.35Zm-68.5-401.7c-1.75-.71-3.57-1.49-5.43-2.19-27.2-10.41-54.47-20.64-81.57-31.3a53.93,53.93,0,0,0-24.6-4.07C52.41-23.31,27.25-22.79,2.2-20.83c-11.4.89-22.64,3.92-33.94,6L-31.63-13,174.15,65.77c1.72-9.37,2.76-18.49,5.19-27.22S185.62,21.46,189.06,12.36ZM144.38-40.41a6.52,6.52,0,0,0,1.34,1.09c21.12,8.12,42.23,16.26,63.41,24.19,1.27,0.48,3.56-.25,4.7-1.21A151.8,151.8,0,0,1,250.15-39c3.16-1.41,6.3-2.9,9.75-4.5A63.06,63.06,0,0,1,257-50.13c-1.56-5.23-5-7.94-10.14-9.76-13.79-4.91-27.42-10.26-41-15.66-3-1.19-5-.79-7.63,1.07C186.7-66.36,175-58.39,163.16-50.74,157.22-46.91,150.76-43.88,144.38-40.41ZM51.26,429.2l29,64.6,64.2-28.9Z" transform="translate(313.2 435.07)"/><path d="M-180.73,250.16c1,1.88,1.73,3.13,2.34,4.44Q-119.52,381.49-60.7,508.41c37,80.15-11.22,171.69-98.16,187-73.08,12.83-144.09-39.75-153.28-113.48-3.62-29,2.15-56,15.55-82.06,12.11-23.52,22.5-47.93,33.6-72q39.69-86,79.35-171.92C-182.83,254.17-181.89,252.45-180.73,250.16Z" transform="translate(313.2 435.07)"/></svg>