<svg id="Слой_1" data-name="Слой 1" xmlns="http://www.w3.org/2000/svg" viewBox="0 0 13.31 12.79"><title>Hand</title><path d="M129.21,124.29v5.53c1.07-.37,2-0.7,2.91-1,1.25-.42,1.83-0.13,2.32,1.11a1.59,1.59,0,0,1-1,2.4,19,19,0,0,1-1.89.73,3.51,3.51,0,0,0-2.78,2.46,1.64,1.64,0,0,1-1.17.78,33.62,33.62,0,0,1-4,.4,1.27,1.27,0,0,1-1-.62,23.18,23.18,0,0,1-1.26-3.1,1.49,1.49,0,0,1,.19-1.17c1.71-2.31,3.41-4.63,5.24-6.84a6.18,6.18,0,0,1,2.05-1.07Zm3.74,5.38-4.84,1.79v-6.17c-2,2.51-3.75,4.74-5.49,7a0.88,0.88,0,0,0-.06.65c0.55,2.35.93,2.63,3.27,2.46a4.66,4.66,0,0,0,1.3-.19,1.56,1.56,0,0,0,.93-0.7,3.26,3.26,0,0,1,2.5-2.27c0.68-.21,1.32-0.57,2-0.8C133.61,131.09,133.78,130.56,133,129.67Z" transform="translate(-121.34 -123.91)"/></svg>