<svg id="Слой_1" data-name="Слой 1" xmlns="http://www.w3.org/2000/svg" viewBox="0 0 888.49 1132.26"><title>Null</title><path d="M499,305.58c-7.63-17-15-33.42-22.34-49.82q-47.74-106.21-95.54-212.4a145.1,145.1,0,0,1-13.37-59.51c0-1-.12-2-0.24-3.72-1.79.69-3.27,1.19-4.69,1.83Q320.38,1,278,20c-9.34,4.2-18.14,9.22-25.13,16.88-13.72,15-15.52,32.57-10.53,51.41a76.85,76.85,0,0,0,4.32,11.7q65.52,145.89,131.16,291.73c3.91,8.67,5.78,17.37,2.76,26.64-3.25,10-10.05,16.53-19.55,20.79q-92.13,41.29-184.18,82.74L79.75,565.57C59.92,574.49,42,567.77,33.12,548q-149-331.38-298-662.77c-9.6-21.35-3-38.64,18.4-48.28q119.64-53.83,239.3-107.6L348.41-430.49c22.16-10,39.11-3.55,49,18.46q63.51,141.32,127,282.64c7.82,17.4,3.07,34.85-11.93,43.67a105.34,105.34,0,0,1-9.89,4.78q-16.38,7.45-32.79,14.82l-0.92.39c-34.83,15.15-45.19,43.32-29.42,79.06,43,97.55,87.19,194.6,130.89,291.85,9.52,21.18,3,38.52-18.05,48-34.94,15.72-69.85,31.52-104.87,47.06-20.08,8.91-41.66-2.22-46-23.34-3-14.83,4.57-29.29,19.53-36.18,21-9.69,42.21-19,63.33-28.54ZM156.91-273L-193.63-115.23,10.14,339.44C18,332.24,25.42,325.1,33.2,318.36c18.06-15.62,39.09-22.36,62.88-20,15.57,1.55,31.11,3.45,46.67,5.12,21.88,2.35,43.77,3.29,64.15-6.86,14.11-7,27.64-15.24,41.4-23a31.87,31.87,0,0,0,3.86-3c-0.69-1.56-1.22-2.77-1.77-4-20.23-44.87-40.33-89.8-60.77-134.57-9.42-20.64-14.71-42-13.73-64.76,0.59-13.7,2.3-27.39,7.73-40,12.93-29.94,34.3-51.93,64.28-65.29,3.93-1.75,7.81-3.6,12.29-5.67ZM452.68-130L349.53-359.43,216.37-299.64,319.51-70.19ZM257.26,414.2c-1.78-.84-2.35-1.16-3-1.39q-93.72-35.87-187.49-71.6a7.67,7.67,0,0,0-6.29.83c-9.52,7.23-19,14.49-28,22.36-7.58,6.66-7.28,7-3.14,16.15,1.47,3.24,2.47,6.48,6.63,8.06,49,18.56,98,37.37,147,56a10.14,10.14,0,0,0,6.94-.2c15-6.49,29.8-13.28,44.67-20Zm48.85-22.55C296.74,370.81,287.44,350,278,329.32c-0.64-1.4-2.56-2.52-4.13-3.15-7.1-2.86-14.34-5.36-21.41-8.29a8.13,8.13,0,0,0-8.34.65c-26,16.4-54.32,21.76-84.62,17.74-4.73-.63-9.51-0.83-14.27-1.23a4.64,4.64,0,0,0,2.58,2q73.18,28,146.33,56.11C298.42,394.85,302,395.23,306.11,391.65Zm-163.21,74,0.1-1.3L51.26,429.22l29,64.59Z" transform="translate(313.85 435.06)"/><path d="M-180.62,249.81l24.81,53.5Q-108.18,406-60.59,508.62c37,80.2-11.8,172.93-99,186.64-51.72,8.13-95.21-9.38-126.7-51.17-31.63-42-35.57-88.37-14-136.37,13.63-30.38,28.28-60.3,42.28-90.51q37.39-80.69,74.54-161.48C-182.78,254.09-181.94,252.49-180.62,249.81Z" transform="translate(313.85 435.06)"/></svg>